# Blender 3.3.0
# www.blender.org
mtllib Gem1.mtl
o Gem1
v 0.000001 -0.755773 -0.000000
v 0.091405 0.146406 0.281322
v -0.239308 0.146406 0.173865
v -0.239308 0.146406 -0.173865
v 0.091405 0.146406 -0.281322
v 0.295800 0.146405 -0.000000
v -0.000000 0.210371 0.000000
v 0.400129 0.000000 0.130008
v 0.400129 0.000000 -0.130008
v 0.000000 0.000000 0.420720
v 0.247293 0.000000 0.340370
v -0.400129 0.000000 0.130008
v -0.247293 0.000000 0.340370
v -0.247293 0.000000 -0.340370
v -0.400129 0.000000 -0.130008
v 0.247293 0.000000 -0.340370
v 0.000000 0.000000 -0.420720
v 0.227594 0.172373 0.165356
v -0.086935 0.172373 0.267552
v -0.281322 0.172373 -0.000000
v -0.086935 0.172373 -0.267552
v 0.227594 0.172373 -0.165356
v 0.043902 0.095243 0.135119
v 0.142073 0.095242 -0.000000
v -0.114939 0.095243 0.083507
v -0.114939 0.095243 -0.083507
v 0.043902 0.095243 -0.135119
vn 0.7150 -0.4679 0.5195
vn -0.2731 -0.4679 0.8405
vn -0.8838 -0.4679 -0.0000
vn -0.2731 -0.4679 -0.8405
vn 0.7150 -0.4679 -0.5195
vn -0.3498 0.9139 -0.2062
vn 0.0880 0.9139 -0.3964
vn 0.4042 0.9139 -0.0388
vn 0.1618 0.9139 0.3724
vn -0.3041 0.9139 0.2690
vn 0.5725 0.7065 -0.4160
vn -0.3402 0.9073 0.2472
vn -0.3498 0.9139 0.2062
vn -0.2187 0.7065 -0.6731
vn 0.1300 0.9073 0.4000
vn 0.0880 0.9139 0.3964
vn -0.7077 0.7065 -0.0000
vn 0.4206 0.9073 -0.0000
vn 0.4042 0.9139 0.0388
vn -0.2187 0.7065 0.6731
vn 0.1300 0.9073 -0.4000
vn 0.1618 0.9139 -0.3724
vn 0.5725 0.7065 0.4160
vn -0.3402 0.9073 -0.2472
vn -0.3041 0.9139 -0.2690
vn 0.7132 0.6753 -0.1881
vn 0.6661 0.5675 -0.4840
vn 0.3993 0.6753 -0.6201
vn 0.0415 0.6753 -0.7364
vn -0.2544 0.5675 -0.7831
vn -0.4664 0.6753 -0.5714
vn -0.6876 0.6753 -0.2670
vn -0.8234 0.5675 -0.0000
vn -0.6876 0.6753 0.2670
vn -0.4664 0.6753 0.5714
vn -0.2544 0.5675 0.7831
vn 0.0415 0.6753 0.7364
vn 0.3993 0.6753 0.6201
vn 0.6661 0.5675 0.4840
vn 0.7132 0.6753 0.1881
vn 0.2517 0.5803 -0.7745
vn 0.2731 -0.4679 -0.8405
vn -0.6589 0.5803 -0.4787
vn -0.7150 -0.4679 -0.5195
vn -0.6589 0.5803 0.4787
vn -0.7150 -0.4679 0.5195
vn 0.2517 0.5803 0.7745
vn 0.2731 -0.4679 0.8405
vn 0.8144 0.5803 -0.0000
vn 0.8838 -0.4679 -0.0000
vt 0.287921 0.694713
vt 0.853725 0.201223
vt 0.703433 0.152392
vt 0.610549 0.280236
vt 0.703434 0.408082
vt 0.853726 0.359249
vt 0.744973 0.280237
vt 0.968750 0.353018
vt 0.011719 0.784458
vt 0.883345 0.470569
vt 0.117217 0.929664
vt 0.883343 0.089903
vt 0.117219 0.459761
vt 0.968750 0.207455
vt 0.011719 0.604969
vt 0.606713 0.089824
vt 0.458625 0.459763
vt 0.744905 0.044922
vt 0.287922 0.404297
vt 0.521155 0.352889
vt 0.564124 0.784458
vt 0.521155 0.207585
vt 0.564124 0.604969
vt 0.744906 0.515552
vt 0.287920 0.985130
vt 0.606715 0.470651
vt 0.458623 0.929666
vt 0.871783 0.280236
vt 0.784159 0.159634
vt 0.642382 0.205700
vt 0.642383 0.354773
vt 0.784160 0.400839
vt 0.794230 0.244449
vt 0.794231 0.316024
vt 0.726159 0.222332
vt 0.684089 0.280237
vt 0.726159 0.338141
s 0
f 1/1/1 8/9/1 11/15/1
f 1/1/2 10/13/2 13/19/2
f 1/1/3 12/17/3 15/23/3
f 1/1/4 14/21/4 17/27/4
f 1/1/5 16/25/5 9/11/5
f 2/2/6 18/28/6 23/33/6
f 3/3/7 19/29/7 25/35/7
f 4/4/8 20/30/8 26/36/8
f 5/5/9 21/31/9 27/37/9
f 6/6/10 22/32/10 24/34/10
f 24/34/11 27/37/11 7/7/11
f 24/34/12 22/32/12 27/37/12
f 22/32/13 5/5/13 27/37/13
f 27/37/14 26/36/14 7/7/14
f 27/37/15 21/31/15 26/36/15
f 21/31/16 4/4/16 26/36/16
f 26/36/17 25/35/17 7/7/17
f 26/36/18 20/30/18 25/35/18
f 20/30/19 3/3/19 25/35/19
f 25/35/20 23/33/20 7/7/20
f 25/35/21 19/29/21 23/33/21
f 19/29/22 2/2/22 23/33/22
f 23/33/23 24/34/23 7/7/23
f 23/33/24 18/28/24 24/34/24
f 18/28/25 6/6/25 24/34/25
f 9/10/26 22/32/26 6/6/26
f 9/10/27 16/24/27 22/32/27
f 16/24/28 5/5/28 22/32/28
f 17/26/29 21/31/29 5/5/29
f 17/26/30 14/20/30 21/31/30
f 14/20/31 4/4/31 21/31/31
f 15/22/32 20/30/32 4/4/32
f 15/22/33 12/16/33 20/30/33
f 12/16/34 3/3/34 20/30/34
f 13/18/35 19/29/35 3/3/35
f 13/18/36 10/12/36 19/29/36
f 10/12/37 2/2/37 19/29/37
f 11/14/38 18/28/38 2/2/38
f 11/14/39 8/8/39 18/28/39
f 8/8/40 6/6/40 18/28/40
f 16/24/41 17/26/41 5/5/41
f 16/25/42 1/1/42 17/27/42
f 14/20/43 15/22/43 4/4/43
f 14/21/44 1/1/44 15/23/44
f 12/16/45 13/18/45 3/3/45
f 12/17/46 1/1/46 13/19/46
f 10/12/47 11/14/47 2/2/47
f 10/13/48 1/1/48 11/15/48
f 8/8/49 9/10/49 6/6/49
f 8/9/50 1/1/50 9/11/50
