# Blender 3.3.0
# www.blender.org
mtllib Gem3.mtl
o Gem3
v 0.000000 -0.256544 0.000000
v -0.364169 0.144576 0.364169
v -0.364169 0.144576 -0.364169
v 0.364169 0.144576 0.364169
v 0.364169 0.144576 -0.364169
v -0.268268 0.362946 0.322560
v -0.322560 0.362946 0.268268
v -0.268268 0.362946 -0.322560
v -0.322560 0.362946 -0.268268
v 0.268268 0.362946 0.322560
v 0.322560 0.362946 0.268268
v 0.322560 0.362946 -0.268268
v 0.268268 0.362946 -0.322560
v -0.365305 0.257383 0.430369
v -0.355825 0.280805 0.427301
v -0.362588 0.270205 0.432969
v -0.427301 0.280805 0.355825
v -0.430369 0.257383 0.365305
v -0.432969 0.270205 0.362588
v -0.355825 0.280805 -0.427301
v -0.365305 0.257383 -0.430369
v -0.362588 0.270205 -0.432969
v -0.430369 0.257383 -0.365305
v -0.427301 0.280805 -0.355825
v -0.432969 0.270205 -0.362588
v 0.355825 0.280805 0.427301
v 0.365305 0.257383 0.430369
v 0.362588 0.270205 0.432969
v 0.430369 0.257383 0.365305
v 0.427301 0.280805 0.355825
v 0.432969 0.270205 0.362588
v 0.427301 0.280805 -0.355825
v 0.430369 0.257383 -0.365305
v 0.432969 0.270205 -0.362588
v 0.365305 0.257383 -0.430369
v 0.355825 0.280805 -0.427301
v 0.362588 0.270205 -0.432969
vn -0.0000 -1.0000 -0.0000
vn -0.5298 -0.6623 0.5298
vn -0.5298 -0.6623 -0.5298
vn 0.5298 -0.6623 -0.5298
vn 0.5298 -0.6623 0.5298
vn -0.3316 0.9377 0.1034
vn -0.1034 0.9377 0.3316
vn 0.1034 0.9377 0.3316
vn 0.3316 0.9377 0.1034
vn 0.3316 0.9377 -0.1034
vn 0.1034 0.9377 -0.3316
vn -0.1034 0.9377 -0.3316
vn -0.3316 0.9377 -0.1034
vn -0.3859 -0.2794 -0.8792
vn -0.8792 -0.2794 -0.3859
vn 0.6697 0.7027 -0.2404
vn 0.2404 0.7027 -0.6697
vn 0.2404 0.7027 0.6697
vn 0.6697 0.7027 0.2404
vn -0.6697 0.7027 -0.2404
vn -0.6697 0.7027 0.2404
vn -0.2404 0.7027 -0.6697
vn -0.3859 -0.2794 0.8792
vn -0.8792 -0.2794 0.3859
vn 0.3859 -0.2794 -0.8792
vn 0.3859 -0.2794 0.8792
vn 0.8792 -0.2794 0.3859
vn 0.8792 -0.2794 -0.3859
vn -0.2404 0.7027 0.6697
vn -0.3618 0.2405 0.9007
vn -0.9007 0.2405 0.3618
vn -0.9007 0.2405 -0.3618
vn -0.3618 0.2405 -0.9007
vn 0.9007 0.2405 0.3618
vn 0.3618 0.2405 0.9007
vn 0.3618 0.2405 -0.9007
vn 0.9007 0.2405 -0.3618
vt 0.816529 0.187181
vt 0.929970 0.302673
vt 0.701037 0.300621
vt 0.932022 0.073740
vt 0.703088 0.071688
vt 0.534124 0.485094
vt 0.170823 0.421334
vt 0.503004 0.453974
vt 0.133782 0.457975
vt 0.164344 0.485094
vt 0.166209 0.849165
vt 0.195464 0.453974
vt 0.129645 0.812105
vt 0.534124 0.792634
vt 0.524774 0.422515
vt 0.503004 0.823754
vt 0.561383 0.459431
vt 0.195464 0.823754
vt 0.558867 0.814050
vt 0.164344 0.792634
vt 0.521650 0.850579
vt 0.976570 0.318402
vt 0.097063 0.332531
vt 0.981838 0.321075
vt 0.087821 0.323945
vt 0.982515 0.319367
vt 0.090962 0.322764
vt 0.043158 0.388218
vt 0.947045 0.347454
vt 0.949900 0.352501
vt 0.034330 0.379375
vt 0.948182 0.353167
vt 0.033186 0.382560
vt 0.096379 0.940239
vt 0.656256 0.317696
vt 0.651209 0.320552
vt 0.087523 0.949105
vt 0.650543 0.318833
vt 0.090720 0.950248
vt 0.685308 0.347222
vt 0.040451 0.885822
vt 0.682635 0.352490
vt 0.031828 0.895071
vt 0.684342 0.353167
vt 0.030657 0.891915
vt 0.593916 0.331504
vt 0.976802 0.056665
vt 0.981849 0.053810
vt 0.602704 0.322629
vt 0.982516 0.055528
vt 0.599510 0.321505
vt 0.947750 0.027139
vt 0.650158 0.385192
vt 0.950424 0.021871
vt 0.658729 0.375902
vt 0.948716 0.021194
vt 0.659917 0.379045
vt 0.649909 0.883870
vt 0.686014 0.026907
vt 0.683158 0.021860
vt 0.658776 0.892728
vt 0.684876 0.021194
vt 0.659917 0.889531
vt 0.656488 0.055959
vt 0.595692 0.939898
vt 0.651220 0.053286
vt 0.604972 0.948533
vt 0.650543 0.054994
vt 0.601815 0.949719
s 1
f 1/1/1 2/2/2 3/3/3
f 1/1/1 3/3/3 5/5/4
f 1/1/1 5/5/4 4/4/5
f 1/1/1 4/4/5 2/2/2
f 7/8/6 6/6/7 10/14/8 11/16/9 12/18/10 13/20/11 8/10/12 9/12/13
f 21/35/14 3/3/3 23/40/15
f 13/21/11 12/19/10 32/58/16 36/65/17
f 11/17/9 10/15/8 26/46/18 30/53/19
f 12/19/10 11/17/9 30/53/19 32/58/16
f 7/9/6 9/13/13 24/41/20 17/28/21
f 8/11/12 13/21/11 36/65/17 20/34/22
f 14/22/23 18/29/24 2/2/2
f 5/5/4 3/3/3 21/35/14 35/64/25
f 27/47/26 4/4/5 29/52/27
f 33/59/28 5/5/4 35/64/25
f 3/3/3 2/2/2 18/29/24 23/40/15
f 9/13/13 8/11/12 20/34/22 24/41/20
f 4/4/5 5/5/4 33/59/28 29/52/27
f 2/2/2 4/4/5 27/47/26 14/22/23
f 6/7/7 7/9/6 17/28/21 15/23/29
f 18/29/24 14/22/23 16/24/30 19/30/31
f 19/31/31 16/25/30 15/23/29 17/28/21
f 21/35/14 23/40/15 25/42/32 22/36/33
f 22/37/33 25/43/32 24/41/20 20/34/22
f 27/47/26 29/52/27 31/54/34 28/48/35
f 28/49/35 31/55/34 30/53/19 26/46/18
f 33/59/28 35/64/25 37/66/36 34/60/37
f 34/61/37 37/67/36 36/65/17 32/58/16
f 23/40/15 18/29/24 19/32/31 25/44/32
f 25/45/32 19/33/31 17/28/21 24/41/20
f 35/64/25 21/35/14 22/38/33 37/68/36
f 37/69/36 22/39/33 20/34/22 36/65/17
f 29/52/27 33/59/28 34/62/37 31/56/34
f 31/57/34 34/63/37 32/58/16 30/53/19
f 14/22/23 27/47/26 28/50/35 16/26/30
f 16/27/30 28/51/35 26/46/18 15/23/29
f 10/15/8 6/7/7 15/23/29 26/46/18
