# File produced by Open Asset Import Library (http://www.assimp.sf.net)
# (assimp v3.1.113183908)

mtllib HalfArrowTip.mtl

# vertex positions
v -0.073376 -3.281706 -0.042363
v -0.042363 -3.281706 -0.073376
v 0.000000 -3.281706 -0.084727
v 0.042363 -3.281706 -0.073376
v 0.073376 -3.281706 -0.042363
v 0.084727 -3.281706 0.000000
v 0.073376 -3.281706 0.042363
v 0.042363 -3.281706 0.073376
v 0.000000 -3.281706 0.084727
v -0.042363 -3.281706 0.073376
v -0.073376 -3.281706 0.042363
v -0.084727 -3.281706 0.000000
v 0.000000 -4.441424 0.000000
v 0.000000 -4.248969 -0.038240
v 0.100579 -4.248969 0.000000
v 0.000000 -4.248969 0.038240
v 0.000000 -3.284024 0.000000
v -0.201158 -3.284024 -0.076479
v -0.299810 -3.371863 0.000000
v -0.201158 -3.284024 0.076479
v -0.100579 -4.248969 0.000000
v 0.000000 -0.951011 -0.084727
v -0.042363 -0.908812 -0.073376
v -0.073376 -0.852879 -0.042363
v -0.084727 -0.768619 0.000000
v -0.073376 -0.666697 0.042363
v -0.042363 -0.608372 0.073376
v 0.000000 -0.606623 0.074089
v 0.042363 -0.666697 0.067702
v 0.073376 -0.768619 0.042363
v 0.084727 -0.816490 0.000000
v 0.073376 -0.852879 -0.042363
v 0.042363 -0.908812 -0.073376
v 0.000000 -3.992102 -0.076479
v 0.000000 -3.284024 -0.152958
v -0.100579 -3.992102 -0.038240
v -0.201158 -3.992102 0.000000
v -0.100579 -3.992102 0.038240
v 0.000000 -3.992102 0.076479
v 0.000000 -3.284024 0.152958
v 0.201158 -3.284024 0.076479
v 0.305073 -3.362118 0.000000
v 0.201158 -3.284024 -0.076479
v 0.100579 -3.992102 0.038240
v 0.201158 -3.992102 0.000000
v 0.100579 -3.992102 -0.038240

# UV coordinates
vt 0.417561 0.445570
vt 0.425795 0.459832
vt 0.425795 0.476300
vt 0.417561 0.490562
vt 0.403299 0.498796
vt 0.386831 0.498796
vt 0.372569 0.490562
vt 0.364335 0.476300
vt 0.364335 0.459832
vt 0.372569 0.445570
vt 0.386831 0.437336
vt 0.403299 0.437336
vt 0.360079 0.000000
vt 0.362736 0.073400
vt 0.322432 0.071862
vt 0.118914 0.000000
vt 0.147550 0.071567
vt 0.122213 0.073445
vt 0.291423 0.545102
vt 0.291423 0.625907
vt 0.251318 0.650585
vt 0.237738 0.605496
vt 0.082418 0.071977
vt 0.457781 0.437336
vt 0.432250 0.367144
vt 0.463432 0.364226
vt 0.193953 0.123567
vt 0.180988 0.109019
vt 0.174871 0.089742
vt 0.177089 0.059850
vt 0.186984 0.022903
vt 0.202082 0.001483
vt 0.216682 0.000000
vt 0.230506 0.021384
vt 0.237738 0.058023
vt 0.235331 0.074321
vt 0.225095 0.086786
vt 0.209984 0.107313
vt 0.206085 0.994263
vt 0.222336 0.993773
vt 0.237738 0.994143
vt 0.466830 0.981818
vt 0.468733 0.069820
vt 0.482900 0.056188
vt 0.480968 0.981851
vt 0.499404 0.038248
vt 0.497435 0.981885
vt 0.511817 0.000000
vt 0.511817 0.981913
vt 0.588116 0.999984
vt 0.587212 0.023511
vt 0.599635 0.000000
vt 0.599635 0.998746
vt 0.555398 0.001066
vt 0.555398 0.999813
vt 0.541570 1.000000
vt 0.539537 0.001556
vt 0.525574 0.977826
vt 0.523586 0.001166
vt 0.513728 0.938595
vt 0.555398 0.943639
vt 0.555398 0.000000
vt 0.571305 0.031639
vt 0.571305 0.943639
vt 0.587212 0.052641
vt 0.587212 0.943639
vt 0.193340 0.995480
vt 0.466830 0.267036
vt 0.404466 0.005834
vt 0.466830 0.000000
vt 0.435648 0.269954
vt 0.404466 0.272870
vt 0.364335 0.042714
vt 0.044607 0.167974
vt 0.044607 0.435381
vt 0.000000 0.399477
vt 0.084402 0.169442
vt 0.124197 0.170911
vt 0.124197 0.438318
vt 0.291423 0.464296
vt 0.237738 0.524690
vt 0.332044 0.438263
vt 0.345108 0.484708
vt 0.345108 0.565513
vt 0.174871 0.434561
vt 0.149534 0.169032
vt 0.174871 0.167153
vt 0.634679 0.267305
vt 0.599635 0.033132
vt 0.634679 0.000000
vt 0.283725 0.167767
vt 0.283725 0.435188
vt 0.237738 0.402938
vt 0.324030 0.169304
vt 0.364335 0.170841
vt 0.364335 0.438263

# vertex normals
vn -0.655716 -0.653216 -0.378609
vn -0.378609 -0.653216 -0.655716
vn -0.000000 -0.653193 -0.757192
vn 0.378609 -0.653216 -0.655716
vn 0.655716 -0.653216 -0.378609
vn 0.757192 -0.653193 0.000000
vn 0.645001 -0.655501 0.392801
vn 0.345313 -0.652824 0.674225
vn 0.025599 -0.645085 0.763682
vn -0.336007 -0.659514 0.672414
vn -0.655716 -0.653216 0.378609
vn -0.757192 -0.653193 -0.000000
vn -0.000000 -1.000000 -0.000000
vn -0.000000 -0.170202 -0.985409
vn 0.915417 -0.402507 0.000000
vn 0.000000 -0.170202 0.985409
vn -0.003900 0.999992 0.000000
vn -0.445001 0.657502 -0.608001
vn -0.970821 0.239805 0.000000
vn -0.445001 0.657502 0.608001
vn -0.915417 -0.402507 -0.000000
vn 0.035499 0.118798 -0.992284
vn -0.295293 0.235694 -0.925878
vn -0.568506 0.274003 -0.775708
vn -0.751582 0.368091 -0.547387
vn -0.784994 0.562995 -0.258498
vn -0.383188 0.893671 0.233493
vn 0.198097 0.952185 0.232596
vn 0.660084 0.732982 0.164396
vn 0.923610 0.382004 -0.031900
vn 0.830594 0.293598 -0.473196
vn 0.636590 0.261296 -0.725588
vn 0.415207 0.224404 -0.881615
vn -0.000000 -0.126804 -0.991928
vn 0.000000 0.594385 -0.804180
vn -0.352792 -0.119197 -0.928079
vn -0.953907 -0.300102 -0.000000
vn -0.352792 -0.119197 0.928079
vn 0.000000 -0.126804 0.991928
vn 0.000000 0.594385 0.804180
vn 0.429568 0.660451 0.615854
vn 0.963502 0.267701 0.000000
vn 0.429568 0.660451 -0.615854
vn 0.352792 -0.119197 0.928079
vn 0.953746 -0.300614 0.000000
vn 0.352792 -0.119197 -0.928079

# Mesh
g Feathers
usemtl DefaultMaterial
f 12/12/12 1/1/1 2/2/2
f 12/12/12 2/2/2 3/3/3
f 12/12/12 3/3/3 4/4/4
f 12/12/12 4/4/4 5/5/5
f 12/12/12 5/5/5 6/6/6
f 12/12/12 6/6/6 7/7/7
f 12/12/12 7/7/7 8/8/8
f 12/12/12 8/8/8 9/9/9
f 12/12/12 9/9/9 10/10/10
f 10/10/10 11/11/11 12/12/12
f 13/13/13 14/14/14 15/15/15
f 13/16/13 15/17/15 16/18/16
f 20/22/20 17/19/17 18/20/18
f 18/20/18 19/21/19 20/22/20
f 13/16/13 16/18/16 21/23/21
f 13/24/13 21/25/21 14/26/14
f 33/38/33 22/27/22 23/28/23
f 33/38/33 23/28/23 24/29/24
f 33/38/33 24/29/24 25/30/25
f 33/38/33 25/30/25 26/31/26
f 33/38/33 26/31/26 27/32/27
f 33/38/33 27/32/27 28/33/28
f 33/38/33 28/33/28 29/34/29
f 33/38/33 29/34/29 30/35/30
f 33/38/33 30/35/30 31/36/31
f 31/36/31 32/37/32 33/38/33
f 4/40/4 3/39/3 22/27/22
f 22/27/22 33/38/33 4/40/4
f 5/41/5 4/40/4 33/38/33
f 33/38/33 32/37/32 5/41/5
f 6/45/6 5/42/5 32/43/32
f 32/43/32 31/44/31 6/45/6
f 7/47/7 6/45/6 31/44/31
f 31/44/31 30/46/30 7/47/7
f 8/49/8 7/47/7 30/46/30
f 30/46/30 29/48/29 8/49/8
f 9/53/9 8/50/8 29/51/29
f 29/51/29 28/52/28 9/53/9
f 10/57/10 9/54/9 28/55/28
f 28/55/28 27/56/27 10/57/10
f 11/59/11 10/57/10 27/56/27
f 27/56/27 26/58/26 11/59/11
f 12/48/12 11/59/11 26/58/26
f 26/58/26 25/60/25 12/48/12
f 1/64/1 12/61/12 25/62/25
f 25/62/25 24/63/24 1/64/1
f 2/66/2 1/64/1 24/63/24
f 24/63/24 23/65/23 2/66/2
f 3/39/3 2/67/2 23/28/23
f 23/28/23 22/27/22 3/39/3
f 34/68/34 18/69/18 35/70/35
f 18/69/18 34/68/34 36/71/36
f 36/71/36 37/72/37 18/69/18
f 37/72/37 19/73/19 18/69/18
f 37/74/37 20/75/20 19/76/19
f 20/75/20 37/74/37 38/77/38
f 38/77/38 39/78/39 20/75/20
f 39/78/39 40/79/40 20/75/20
f 40/81/40 41/80/41 17/19/17
f 17/19/17 20/22/20 40/81/40
f 41/80/41 42/82/42 43/83/43
f 43/83/43 17/19/17 41/80/41
f 17/19/17 43/83/43 35/84/35
f 35/84/35 18/20/18 17/19/17
f 39/78/39 41/85/41 40/79/40
f 41/85/41 39/78/39 44/86/44
f 44/86/44 45/87/45 41/85/41
f 45/88/45 42/89/42 41/90/41
f 45/91/45 43/92/43 42/93/42
f 43/92/43 45/91/45 46/94/46
f 46/94/46 34/95/34 43/92/43
f 34/95/34 35/96/35 43/92/43
f 14/26/14 36/71/36 34/68/34
f 14/26/14 21/25/21 36/71/36
f 21/25/21 37/72/37 36/71/36
f 21/23/21 38/77/38 37/74/37
f 21/23/21 16/18/16 38/77/38
f 16/18/16 39/78/39 38/77/38
f 16/18/16 44/86/44 39/78/39
f 16/18/16 15/17/15 44/86/44
f 15/17/15 45/87/45 44/86/44
f 15/15/15 46/94/46 45/91/45
f 15/15/15 14/14/14 46/94/46
f 14/14/14 34/95/34 46/94/46
