# Blender 3.4.1
# www.blender.org
mtllib LP_FireLog.mtl
o Box
v -2.226385 -0.483906 0.425459
v -2.226386 -0.425430 0.483934
v -2.284860 -0.425430 0.425459
v -2.226386 -0.466778 0.466807
v -2.260146 -0.459191 0.459220
v -2.267734 -0.425430 0.466807
v -2.267733 -0.466779 0.425459
v -2.226373 -0.483908 -0.425426
v -2.284848 -0.425433 -0.425425
v -2.226372 -0.425433 -0.483901
v -2.267721 -0.466781 -0.425426
v -2.260133 -0.459193 -0.459186
v -2.267720 -0.425433 -0.466774
v -2.226372 -0.466781 -0.466774
v -2.226385 0.483924 0.425458
v -2.284860 0.425449 0.425459
v -2.226386 0.425449 0.483934
v -2.267733 0.466797 0.425459
v -2.260146 0.459209 0.459219
v -2.267734 0.425449 0.466807
v -2.226386 0.466797 0.466807
v -2.284847 0.425452 -0.425426
v -2.226372 0.483927 -0.425426
v -2.226371 0.425452 -0.483901
v -2.267720 0.466800 -0.425426
v -2.260132 0.459212 -0.459187
v -2.226372 0.466800 -0.466774
v -2.267720 0.425452 -0.466774
v 2.223279 0.483926 0.425443
v 2.223279 0.425451 0.483918
v 2.281754 0.425451 0.425443
v 2.223279 0.466799 0.466791
v 2.257040 0.459212 0.459203
v 2.264627 0.425451 0.466791
v 2.264627 0.466799 0.425443
v 2.281767 0.425451 -0.425442
v 2.223293 0.425451 -0.483917
v 2.223292 0.483926 -0.425441
v 2.264641 0.425451 -0.466790
v 2.257053 0.459212 -0.459202
v 2.223293 0.466799 -0.466790
v 2.264640 0.466799 -0.425442
v 2.223279 -0.425433 0.483920
v 2.223279 -0.483908 0.425445
v 2.281754 -0.425433 0.425445
v 2.223279 -0.466781 0.466793
v 2.257040 -0.459194 0.459206
v 2.264627 -0.466781 0.425445
v 2.264627 -0.425433 0.466793
v 2.223294 -0.425432 -0.483919
v 2.281768 -0.425432 -0.425444
v 2.223293 -0.483907 -0.425444
v 2.264642 -0.425432 -0.466792
v 2.257054 -0.459193 -0.459205
v 2.264641 -0.466780 -0.425444
v 2.223294 -0.466780 -0.466792
vn 0.1794 0.1794 0.9673
vn -0.1794 0.1794 0.9673
vn -0.1794 -0.1794 0.9673
vn 0.1794 -0.1794 0.9673
vn -0.1794 0.9673 -0.1794
vn -0.1794 0.9673 0.1794
vn 0.1794 0.9673 0.1794
vn 0.1794 0.9673 -0.1794
vn 0.9673 0.1794 0.1794
vn 0.9673 -0.1794 0.1794
vn 0.9673 -0.1794 -0.1794
vn 0.9673 0.1794 -0.1794
vn -0.1794 -0.1794 -0.9673
vn -0.1794 0.1794 -0.9673
vn 0.1794 0.1794 -0.9673
vn 0.1794 -0.1794 -0.9673
vn -0.9673 0.1794 0.1794
vn -0.9673 0.1794 -0.1794
vn -0.9673 -0.1794 -0.1794
vn -0.9673 -0.1794 0.1794
vn -0.1794 -0.9673 0.1794
vn -0.1726 -0.6965 0.6965
vn -0.5774 -0.5774 0.5773
vn -0.6965 -0.6965 0.1726
vn -0.6965 -0.1726 0.6965
vn -0.1794 -0.9673 -0.1794
vn -0.6965 -0.6965 -0.1726
vn -0.5773 -0.5773 -0.5774
vn -0.1726 -0.6965 -0.6965
vn -0.6965 -0.1726 -0.6965
vn -0.6965 0.6965 0.1726
vn -0.5774 0.5774 0.5773
vn -0.1726 0.6965 0.6965
vn -0.6965 0.1726 0.6965
vn -0.6965 0.6965 -0.1726
vn -0.5773 0.5774 -0.5774
vn -0.6965 0.1726 -0.6965
vn -0.1726 0.6965 -0.6965
vn 0.1726 0.6965 0.6965
vn 0.5773 0.5774 0.5774
vn 0.6965 0.6965 0.1726
vn 0.6965 0.1726 0.6965
vn 0.6965 0.1726 -0.6965
vn 0.5774 0.5774 -0.5773
vn 0.6965 0.6965 -0.1725
vn 0.1726 0.6965 -0.6965
vn 0.1726 -0.6965 0.6965
vn 0.5773 -0.5773 0.5774
vn 0.6965 -0.1726 0.6965
vn 0.1794 -0.9673 0.1794
vn 0.6965 -0.6965 0.1726
vn 0.6965 -0.1726 -0.6965
vn 0.5774 -0.5774 -0.5773
vn 0.1726 -0.6965 -0.6965
vn 0.6965 -0.6965 -0.1726
vn 0.1794 -0.9673 -0.1794
vt 0.910363 0.606435
vt 0.142586 0.266327
vt 0.669459 0.193463
vt 0.910363 0.596345
vt 0.142587 0.256238
vt 0.916188 0.596345
vt 0.132497 0.260502
vt 0.674227 0.201721
vt 0.132497 0.266327
vt 0.677717 0.193463
vt 0.669459 0.201721
vt 0.920453 0.606435
vt 0.910364 0.753253
vt 0.549306 0.193464
vt 0.910363 0.436388
vt 0.549306 0.201721
vt 0.920453 0.753252
vt 0.920453 0.759078
vt 0.541049 0.198231
vt 0.916188 0.426298
vt 0.541049 0.193464
vt 0.920453 0.436388
vt 0.910363 0.426298
vt 0.910364 0.763342
vt 0.142586 0.776497
vt 0.669459 0.073311
vt 0.142586 0.413144
vt 0.132497 0.776496
vt 0.669459 0.065054
vt 0.132497 0.770671
vt 0.677716 0.068544
vt 0.136761 0.423234
vt 0.132496 0.413144
vt 0.677716 0.073311
vt 0.142586 0.423234
vt 0.142586 0.766407
vt 0.549306 0.073311
vt 0.142586 0.923314
vt 0.910363 0.583205
vt 0.132496 0.923314
vt 0.549306 0.065053
vt 0.544539 0.065053
vt 0.136761 0.933404
vt 0.920453 0.589031
vt 0.142586 0.933404
vt 0.910363 0.593295
vt 0.541049 0.073311
vt 0.920453 0.583205
vt 0.910363 0.776513
vt 0.910363 0.413147
vt 0.669457 0.073311
vt 0.910363 0.423236
vt 0.910363 0.766423
vt 0.916189 0.766423
vt 0.920453 0.418972
vt 0.674224 0.065054
vt 0.920453 0.413147
vt 0.677714 0.073311
vt 0.669457 0.065054
vt 0.920453 0.776513
vt 0.549304 0.073311
vt 0.142587 0.583207
vt 0.910363 0.923330
vt 0.541047 0.073311
vt 0.132497 0.583207
vt 0.541047 0.068543
vt 0.136762 0.593297
vt 0.920453 0.929156
vt 0.910363 0.933420
vt 0.142587 0.593297
vt 0.549304 0.065054
vt 0.920453 0.923330
vt 0.910363 0.266329
vt 0.142586 0.606453
vt 0.669457 0.193464
vt 0.142586 0.596363
vt 0.910363 0.256239
vt 0.916189 0.256239
vt 0.132496 0.600628
vt 0.677714 0.198231
vt 0.132496 0.606453
vt 0.669457 0.201721
vt 0.920453 0.266329
vt 0.677714 0.193464
vt 0.142586 0.436390
vt 0.549304 0.193464
vt 0.142587 0.753271
vt 0.541046 0.193464
vt 0.132496 0.436390
vt 0.132496 0.430565
vt 0.544536 0.201721
vt 0.136762 0.763361
vt 0.132497 0.753271
vt 0.549304 0.201721
vt 0.142586 0.426300
vt 0.142587 0.763361
s 1
usemtl Box
f 30/50/1 17/27/2 2/2/3 43/73/4
f 23/38/5 15/25/6 29/49/7 38/63/8
f 31/51/9 45/75/10 51/86/11 36/61/12
f 10/15/13 24/39/14 37/62/15 50/85/16
f 16/26/17 22/37/18 9/14/19 3/3/20
f 1/1/21 4/4/22 5/6/23 7/12/24
f 2/2/3 6/9/25 5/7/23 4/5/22
f 3/3/20 7/11/24 5/8/23 6/10/25
f 8/13/26 11/17/27 12/18/28 14/24/29
f 9/14/19 13/21/30 12/19/28 11/16/27
f 10/15/13 14/23/29 12/20/28 13/22/30
f 15/25/6 18/28/31 19/30/32 21/36/33
f 16/26/17 20/34/34 19/31/32 18/29/31
f 17/27/2 21/35/33 19/32/32 20/33/34
f 22/37/18 25/41/35 26/42/36 28/47/37
f 23/38/5 27/45/38 26/43/36 25/40/35
f 24/39/14 28/48/37 26/44/36 27/46/38
f 29/49/7 32/53/39 33/54/40 35/60/41
f 30/50/1 34/57/42 33/55/40 32/52/39
f 31/51/9 35/59/41 33/56/40 34/58/42
f 36/61/12 39/64/43 40/66/44 42/71/45
f 37/62/15 41/70/46 40/67/44 39/65/43
f 38/63/8 42/72/45 40/68/44 41/69/46
f 43/73/4 46/77/47 47/78/48 49/83/49
f 44/74/50 48/81/51 47/79/48 46/76/47
f 45/75/10 49/84/49 47/80/48 48/82/51
f 50/85/16 53/89/52 54/90/53 56/95/54
f 51/86/11 55/94/55 54/91/53 53/88/52
f 52/87/56 56/96/54 54/92/53 55/93/55
f 3/3/20 9/14/19 11/16/27 7/11/24
f 7/12/24 11/17/27 8/13/26 1/1/21
f 15/25/6 23/38/5 25/40/35 18/28/31
f 18/29/31 25/41/35 22/37/18 16/26/17
f 31/51/9 36/61/12 42/71/45 35/59/41
f 35/60/41 42/72/45 38/63/8 29/49/7
f 30/50/1 43/73/4 49/83/49 34/57/42
f 34/58/42 49/84/49 45/75/10 31/51/9
f 23/38/5 38/63/8 41/69/46 27/45/38
f 27/46/38 41/70/46 37/62/15 24/39/14
f 36/61/12 51/86/11 53/88/52 39/64/43
f 39/65/43 53/89/52 50/85/16 37/62/15
f 44/74/50 52/87/56 55/93/55 48/81/51
f 48/82/51 55/94/55 51/86/11 45/75/10
f 2/2/3 17/27/2 20/33/34 6/9/25
f 6/10/25 20/34/34 16/26/17 3/3/20
f 9/14/19 22/37/18 28/47/37 13/21/30
f 13/22/30 28/48/37 24/39/14 10/15/13
f 17/27/2 30/50/1 32/52/39 21/35/33
f 21/36/33 32/53/39 29/49/7 15/25/6
f 1/1/21 44/74/50 46/76/47 4/4/22
f 4/5/22 46/77/47 43/73/4 2/2/3
f 10/15/13 50/85/16 56/95/54 14/23/29
f 14/24/29 56/96/54 52/87/56 8/13/26
f 1/1/21 8/13/26 52/87/56 44/74/50
