# Blender 3.3.0
# www.blender.org
mtllib GR-Pickaxe.mtl
o Cylinder
v 0.000000 11.161054 -0.580874
v 0.382683 11.161054 -0.536658
v 0.707107 11.161054 -0.497195
v 0.923880 11.161054 -0.269080
v 1.000000 11.161054 0.000000
v 0.923880 11.161054 0.269080
v 0.707107 11.161054 0.497195
v 0.382683 11.161054 0.536658
v 0.000000 11.161054 0.580874
v -0.382683 11.161054 0.536658
v -0.707107 11.161054 0.497195
v -0.923880 11.161054 0.269080
v -1.000000 11.161054 0.000000
v -0.923880 11.161054 -0.269080
v -0.707107 11.161054 -0.497195
v -0.382683 11.161054 -0.536658
v 0.000000 9.040474 -0.580874
v 0.382683 9.040474 -0.536658
v 0.707107 9.040474 -0.497195
v 0.923880 9.040474 -0.269080
v 1.000000 9.040474 0.000000
v 0.923880 9.040474 0.269080
v 0.707107 9.040474 0.497195
v 0.382683 9.040474 0.536658
v 0.000000 9.040474 0.580874
v -0.382683 9.040474 0.536658
v -0.707107 9.040474 0.497195
v -0.923880 9.040474 0.269080
v -1.000000 9.040474 0.000000
v -0.923880 9.040474 -0.269080
v -0.707107 9.040474 -0.497195
v -0.382683 9.040474 -0.536658
v 0.000000 -11.100000 0.000000
v 0.000000 -10.770871 -0.700319
v 0.000000 -10.989676 -0.604744
v 0.382683 -10.770868 -0.647010
v 0.329582 -10.989674 -0.558711
v 0.707107 -10.770858 -0.497195
v 0.608988 -10.989670 -0.428203
v 0.923880 -10.770858 -0.269080
v 0.795681 -10.989670 -0.231742
v 1.000000 -10.770858 0.000000
v 0.861238 -10.989670 0.000000
v 0.923880 -10.770858 0.269080
v 0.795681 -10.989670 0.231742
v 0.707107 -10.770858 0.497195
v 0.608988 -10.989670 0.428203
v 0.382683 -10.770868 0.647010
v 0.329582 -10.989674 0.558711
v 0.000000 -10.770871 0.700319
v -0.000000 -10.989676 0.604744
v -0.382683 -10.770868 0.647010
v -0.329582 -10.989674 0.558711
v -0.707107 -10.770858 0.497195
v -0.608988 -10.989670 0.428203
v -0.923880 -10.770858 0.269080
v -0.795681 -10.989670 0.231742
v -1.000000 -10.770858 0.000000
v -0.861238 -10.989670 -0.000000
v -0.923880 -10.770858 -0.269080
v -0.795681 -10.989670 -0.231742
v -0.707107 -10.770858 -0.497195
v -0.608988 -10.989670 -0.428203
v -0.382683 -10.770868 -0.647010
v -0.329582 -10.989674 -0.558711
v 12.925024 6.651575 0.000000
v 10.107595 6.987151 -0.639196
v 6.571353 8.447824 -0.639196
v 3.508301 9.040407 -0.639196
v 0.000000 9.040407 -0.899151
v 0.000000 11.040407 -0.899151
v 3.508302 11.040407 -0.639196
v 7.025869 10.395494 -0.639196
v 10.609657 8.923109 -0.639196
v 0.000000 9.040407 0.899151
v 3.508302 9.040407 0.639196
v 6.571353 8.447824 0.639196
v 10.107595 6.987151 0.639196
v 10.609657 8.923109 0.639196
v 7.025869 10.395494 0.639196
v 3.508301 11.040407 0.639196
v 0.000000 11.040407 0.899151
v 10.609657 8.923109 0.000000
v 7.025869 10.395494 0.000000
v 3.508301 11.040407 0.000000
v 0.000000 11.040407 0.000000
v 0.000000 9.040407 0.000000
v 3.508301 9.040407 0.000000
v 6.571353 8.447824 0.000000
v 10.107595 6.987151 0.000000
v 10.358627 7.955130 0.639196
v 6.798611 9.421659 0.639196
v 3.508301 10.040407 0.639196
v 0.000000 10.040407 0.899151
v 0.000000 10.040407 -0.899151
v 3.508301 10.040407 -0.639196
v 6.798611 9.421659 -0.639196
v 10.358627 7.955130 -0.639196
v 1.754150 9.040407 -0.639196
v 1.754151 11.040407 -0.639196
v 1.754151 9.040407 0.639196
v 1.754150 11.040407 0.639196
v 1.754151 9.040407 0.000000
v 1.754151 11.040407 0.000000
v 1.754151 10.040407 -0.639196
v 1.754151 10.040407 0.639196
v -12.925024 6.651575 0.000000
v -10.107595 6.987151 -0.639196
v -6.571353 8.447824 -0.639196
v -3.508301 9.040407 -0.639196
v -3.508302 11.040407 -0.639196
v -7.025869 10.395494 -0.639196
v -10.609657 8.923109 -0.639196
v -3.508302 9.040407 0.639196
v -6.571353 8.447824 0.639196
v -10.107595 6.987151 0.639196
v -10.609657 8.923109 0.639196
v -7.025869 10.395494 0.639196
v -3.508301 11.040407 0.639196
v -10.609657 8.923109 0.000000
v -7.025869 10.395494 0.000000
v -3.508301 11.040407 0.000000
v -3.508301 9.040407 0.000000
v -6.571353 8.447824 0.000000
v -10.107595 6.987151 0.000000
v -10.358627 7.955130 0.639196
v -6.798611 9.421659 0.639196
v -3.508301 10.040407 0.639196
v -3.508301 10.040407 -0.639196
v -6.798611 9.421659 -0.639196
v -10.358627 7.955130 -0.639196
v -1.754150 9.040407 -0.639196
v -1.754151 11.040407 -0.639196
v -1.754151 9.040407 0.639196
v -1.754150 11.040407 0.639196
v -1.754151 9.040407 0.000000
v -1.754151 11.040407 0.000000
v -1.754151 10.040407 -0.639196
v -1.754151 10.040407 0.639196
v 0.751516 11.233213 -0.215511
v -0.751516 11.233213 -0.215511
v 0.751516 11.233213 0.215511
v -0.751516 11.233213 0.215511
v 0.491783 10.854511 -0.103573
v -0.491783 10.854511 -0.103573
v -0.491783 10.854511 0.103573
v 0.491783 10.854511 0.103573
vn -0.0000 0.0029 -1.0000
vn -0.0000 0.5383 -0.8428
vn 0.0962 0.5769 -0.8112
vn 0.1600 0.0021 -0.9871
vn 0.3540 0.5244 -0.7744
vn 0.4586 0.0008 -0.8886
vn 0.6623 0.6396 -0.3902
vn 0.8616 -0.0000 -0.5076
vn 0.7462 0.6657 -0.0000
vn 1.0000 -0.0000 -0.0000
vn 0.6623 0.6396 0.3902
vn 0.8616 -0.0000 0.5076
vn 0.3540 0.5244 0.7744
vn 0.4586 0.0008 0.8886
vn 0.0962 0.5769 0.8112
vn 0.1600 0.0021 0.9871
vn -0.0000 0.5383 0.8428
vn -0.0000 0.0029 1.0000
vn -0.0962 0.5769 0.8112
vn -0.1600 0.0021 0.9871
vn -0.3540 0.5244 0.7744
vn -0.4586 0.0008 0.8886
vn -0.6623 0.6396 0.3902
vn -0.8616 -0.0000 0.5076
vn -0.7462 0.6657 -0.0000
vn -1.0000 -0.0000 -0.0000
vn -0.6623 0.6396 -0.3902
vn -0.8616 -0.0000 -0.5076
vn -0.3540 0.5244 -0.7744
vn -0.4586 0.0008 -0.8886
vn -0.0962 0.5769 -0.8112
vn -0.1600 0.0021 -0.9871
vn -0.2311 -0.1932 -0.9535
vn -0.0000 -0.1872 -0.9823
vn 0.2311 -0.1932 -0.9535
vn 0.5197 -0.2200 -0.8256
vn -0.5197 -0.2200 -0.8256
vn -0.8336 -0.2530 -0.4911
vn -0.9629 -0.2700 -0.0000
vn -0.8336 -0.2530 0.4911
vn -0.5197 -0.2200 0.8256
vn -0.2311 -0.1932 0.9535
vn -0.0000 -0.1872 0.9823
vn 0.2311 -0.1932 0.9535
vn 0.5197 -0.2200 0.8256
vn 0.8336 -0.2530 0.4911
vn 0.9629 -0.2700 -0.0000
vn 0.8336 -0.2530 -0.4911
vn 0.1921 -0.7204 -0.6664
vn -0.0000 -0.7061 -0.7081
vn -0.0000 -1.0000 -0.0000
vn 0.3739 -0.7578 -0.5347
vn 0.5163 -0.8006 -0.3042
vn 0.5724 -0.8200 -0.0000
vn 0.5163 -0.8006 0.3042
vn 0.3739 -0.7578 0.5347
vn 0.1921 -0.7204 0.6664
vn -0.0000 -0.7061 0.7081
vn -0.1921 -0.7204 0.6664
vn -0.3739 -0.7578 0.5347
vn -0.5163 -0.8006 0.3042
vn -0.5724 -0.8200 -0.0000
vn -0.5163 -0.8006 -0.3042
vn -0.3739 -0.7578 -0.5347
vn -0.1921 -0.7204 -0.6664
vn 0.1066 -0.0277 -0.9939
vn 0.3754 0.4725 -0.7974
vn 0.9044 -0.4267 -0.0000
vn -0.2524 -0.9676 -0.0000
vn -0.0653 -0.5753 0.8153
vn 0.5504 0.8349 -0.0000
vn 0.3754 0.4725 0.7974
vn 0.2817 0.9595 -0.0000
vn 0.1689 0.5752 0.8004
vn 0.0905 0.9959 -0.0000
vn 0.0540 0.5940 0.8026
vn -0.0000 1.0000 -0.0000
vn -0.0000 0.5291 0.8485
vn 0.0583 0.6029 0.7957
vn -0.0954 -0.9954 -0.0000
vn -0.0525 -0.5482 0.8347
vn 0.0583 -0.6029 0.7957
vn -0.2873 -0.9578 -0.0000
vn -0.1579 -0.5263 0.8355
vn 0.1066 -0.0277 0.9939
vn -0.0000 -0.0000 1.0000
vn 0.0731 -0.0000 0.9973
vn 0.0731 -0.0000 -0.9973
vn 0.0583 0.6029 -0.7957
vn 0.0540 0.5940 -0.8026
vn -0.0000 -0.0000 -1.0000
vn 0.1689 0.5752 -0.8004
vn -0.1579 -0.5263 -0.8355
vn -0.0653 -0.5753 -0.8153
vn -0.0525 -0.5482 -0.8347
vn 0.0583 -0.6029 -0.7957
vn -0.0000 0.5291 -0.8485
vn -0.0000 -0.5291 0.8485
vn -0.0000 -0.5291 -0.8485
vn -0.1066 -0.0277 -0.9939
vn -0.9044 -0.4267 -0.0000
vn -0.3754 0.4725 -0.7974
vn 0.2524 -0.9676 -0.0000
vn 0.0653 -0.5753 0.8153
vn -0.3754 0.4725 0.7974
vn -0.5504 0.8349 -0.0000
vn -0.1689 0.5752 0.8004
vn -0.2817 0.9595 -0.0000
vn -0.0540 0.5940 0.8026
vn -0.0905 0.9959 -0.0000
vn -0.0583 0.6029 0.7957
vn -0.0583 -0.6029 0.7957
vn 0.0525 -0.5482 0.8347
vn 0.0954 -0.9954 -0.0000
vn 0.1579 -0.5263 0.8355
vn 0.2873 -0.9578 -0.0000
vn -0.1066 -0.0277 0.9939
vn -0.0731 -0.0000 0.9973
vn -0.0731 -0.0000 -0.9973
vn -0.0540 0.5940 -0.8026
vn -0.0583 0.6029 -0.7957
vn -0.1689 0.5752 -0.8004
vn 0.1579 -0.5263 -0.8355
vn 0.0653 -0.5753 -0.8153
vn 0.0525 -0.5482 -0.8347
vn -0.0583 -0.6029 -0.7957
vn -0.0000 0.2835 0.9590
vn 0.8247 0.5656 -0.0000
vn -0.0000 0.2835 -0.9590
vn -0.8247 0.5656 -0.0000
vt 0.506924 0.806267
vt 0.837234 0.990735
vt 0.854144 0.990556
vt 0.489525 0.754756
vt 0.868478 0.990396
vt 0.991478 0.989863
vt 0.474386 0.711151
vt 0.975495 0.990396
vt 0.424578 0.688538
vt 0.958195 0.990396
vt 0.369907 0.686707
vt 0.942211 0.989863
vt 0.318696 0.705937
vt 0.929978 0.988879
vt 0.743092 0.990466
vt 0.278743 0.743300
vt 0.757522 0.990593
vt 0.278354 0.789457
vt 0.774541 0.990735
vt 0.278354 0.843827
vt 0.791451 0.990556
vt 0.295753 0.895338
vt 0.805785 0.990396
vt 0.929978 0.989863
vt 0.310892 0.938943
vt 0.913995 0.990396
vt 0.360701 0.961557
vt 0.896695 0.990396
vt 0.415372 0.963388
vt 0.880711 0.989863
vt 0.466582 0.944158
vt 0.868478 0.988879
vt 0.506535 0.906794
vt 0.805785 0.990466
vt 0.506924 0.860638
vt 0.820215 0.990593
vt 0.837234 0.896867
vt 0.854144 0.896688
vt 0.868478 0.896529
vt 0.991478 0.896143
vt 0.975495 0.896677
vt 0.958195 0.896677
vt 0.942211 0.896143
vt 0.743092 0.896598
vt 0.929978 0.895160
vt 0.757522 0.896726
vt 0.774541 0.896867
vt 0.791451 0.896688
vt 0.929978 0.896143
vt 0.805785 0.896529
vt 0.913995 0.896677
vt 0.896695 0.896677
vt 0.880711 0.896143
vt 0.805785 0.896598
vt 0.868478 0.895160
vt 0.820215 0.896726
vt 0.661936 0.794005
vt 0.681994 0.813897
vt 0.692778 0.839877
vt 0.692615 0.867949
vt 0.681970 0.893968
vt 0.662100 0.913849
vt 0.636015 0.924570
vt 0.607631 0.924431
vt 0.581331 0.913746
vt 0.561272 0.893853
vt 0.550488 0.867873
vt 0.550651 0.839801
vt 0.561296 0.813783
vt 0.581166 0.793901
vt 0.607251 0.783180
vt 0.635635 0.783319
vt 0.837379 0.020351
vt 0.837263 0.010318
vt 0.672815 0.777606
vt 0.854279 0.020138
vt 0.851817 0.010134
vt 0.698234 0.803351
vt 0.868478 0.019578
vt 0.991478 0.020575
vt 0.864044 0.009646
vt 0.988060 0.010494
vt 0.711559 0.836206
vt 0.975495 0.021107
vt 0.974295 0.010952
vt 0.711559 0.871541
vt 0.958195 0.021107
vt 0.959395 0.010952
vt 0.698186 0.904493
vt 0.942211 0.020575
vt 0.945630 0.010494
vt 0.673047 0.929873
vt 0.929978 0.019592
vt 0.743092 0.019648
vt 0.935094 0.009646
vt 0.747358 0.009706
vt 0.639977 0.943659
vt 0.757656 0.020177
vt 0.759903 0.010167
vt 0.604062 0.943670
vt 0.774686 0.020351
vt 0.774570 0.010318
vt 0.570451 0.930144
vt 0.791586 0.020138
vt 0.789124 0.010134
vt 0.545032 0.904399
vt 0.805785 0.019578
vt 0.929978 0.020575
vt 0.801351 0.009646
vt 0.926560 0.010494
vt 0.531707 0.871544
vt 0.913995 0.021107
vt 0.912795 0.010952
vt 0.531707 0.836209
vt 0.896695 0.021107
vt 0.897895 0.010952
vt 0.545080 0.803257
vt 0.880711 0.020575
vt 0.884130 0.010494
vt 0.570219 0.777878
vt 0.868478 0.019592
vt 0.805785 0.019648
vt 0.873594 0.009646
vt 0.810051 0.009706
vt 0.603289 0.764091
vt 0.820349 0.020177
vt 0.822596 0.010167
vt 0.639204 0.764080
vt 0.067242 0.001436
vt 0.201726 0.001436
vt 0.508826 0.654779
vt 0.385586 0.041511
vt 0.154945 0.209045
vt 0.396161 0.171084
vt 0.154945 0.480232
vt 0.363269 0.340391
vt 0.154945 0.708265
vt 0.364570 0.481002
vt 0.396161 0.636819
vt 0.135920 0.962519
vt 0.133048 0.998564
vt 0.307582 0.654779
vt 0.275991 0.498962
vt 0.114023 0.750850
vt 0.272921 0.337806
vt 0.114023 0.490061
vt 0.305903 0.166294
vt 0.114023 0.208663
vt 0.519401 0.059471
vt 0.267533 0.962519
vt 0.248507 0.708265
vt 0.487810 0.215289
vt 0.248507 0.480232
vt 0.486510 0.355900
vt 0.248507 0.209045
vt 0.519401 0.525206
vt 0.020461 0.208663
vt 0.429143 0.529997
vt 0.020461 0.490061
vt 0.396161 0.358485
vt 0.399231 0.197328
vt 0.020461 0.750850
vt 0.001436 0.998564
vt 0.430822 0.041511
vt 0.067242 0.208663
vt 0.067242 0.490061
vt 0.067242 0.750850
vt 0.067242 0.998564
vt 0.201726 0.962519
vt 0.201726 0.708265
vt 0.201726 0.480232
vt 0.201726 0.209045
vt 0.474272 0.527602
vt 0.441335 0.357192
vt 0.443521 0.206308
vt 0.475112 0.050491
vt 0.351871 0.645799
vt 0.320280 0.489982
vt 0.318095 0.339098
vt 0.351032 0.168689
vt 0.380345 0.558480
vt 0.154945 0.835392
vt 0.114023 0.874707
vt 0.291766 0.576440
vt 0.503585 0.137811
vt 0.248507 0.835392
vt 0.415006 0.119850
vt 0.020461 0.874707
vt 0.201726 0.835392
vt 0.067242 0.874707
vt 0.336055 0.567459
vt 0.459296 0.128831
vt 0.067242 0.001436
vt 0.201726 0.001436
vt 0.508826 0.654779
vt 0.385586 0.041511
vt 0.154945 0.209045
vt 0.396161 0.171084
vt 0.154945 0.480232
vt 0.363269 0.340391
vt 0.154945 0.708265
vt 0.364570 0.481002
vt 0.275991 0.498962
vt 0.114023 0.750850
vt 0.272921 0.337806
vt 0.114023 0.490061
vt 0.305903 0.166294
vt 0.114023 0.208663
vt 0.248507 0.708265
vt 0.487810 0.215289
vt 0.248507 0.480232
vt 0.486510 0.355900
vt 0.248507 0.209045
vt 0.519401 0.525206
vt 0.020461 0.208663
vt 0.429143 0.529997
vt 0.020461 0.490061
vt 0.396161 0.358485
vt 0.399231 0.197328
vt 0.020461 0.750850
vt 0.067242 0.208663
vt 0.067242 0.490061
vt 0.067242 0.750850
vt 0.201726 0.708265
vt 0.201726 0.480232
vt 0.201726 0.209045
vt 0.474272 0.527602
vt 0.441335 0.357192
vt 0.443521 0.206308
vt 0.320280 0.489982
vt 0.318095 0.339098
vt 0.351032 0.168689
vt 0.380345 0.558480
vt 0.154945 0.835392
vt 0.114023 0.874707
vt 0.291766 0.576440
vt 0.503585 0.137811
vt 0.248507 0.835392
vt 0.415006 0.119850
vt 0.020461 0.874707
vt 0.201726 0.835392
vt 0.067242 0.874707
vt 0.336055 0.567459
vt 0.459296 0.128831
vt 0.724609 0.433770
vt 0.583454 0.510237
vt 0.550361 0.283458
vt 0.555501 0.433770
vt 0.691682 0.583471
vt 0.719469 0.283458
vt 0.555501 0.360974
vt 0.691682 0.510237
vt 0.550361 0.175230
vt 0.583454 0.583471
vt 0.724609 0.360974
vt 0.719469 0.175230
vt 0.695386 0.360974
vt 0.611561 0.437003
vt 0.581020 0.583471
vt 0.584724 0.360974
vt 0.663575 0.510237
vt 0.691682 0.583471
vt 0.611561 0.510237
vt 0.695386 0.288179
vt 0.691682 0.635485
vt 0.584724 0.288179
vt 0.663575 0.437003
vt 0.581020 0.635485
s 1
f 17/37/1 1/2/2 2/3/3 18/38/4
f 18/38/4 2/3/3 3/5/5 19/39/6
f 19/40/6 3/6/5 4/8/7 20/41/8
f 20/41/8 4/8/7 5/10/9 21/42/10
f 21/42/10 5/10/9 6/12/11 22/43/12
f 22/43/12 6/12/11 7/14/13 23/45/14
f 23/44/14 7/15/13 8/17/15 24/46/16
f 24/46/16 8/17/15 9/19/17 25/47/18
f 25/47/18 9/19/17 10/21/19 26/48/20
f 26/48/20 10/21/19 11/23/21 27/50/22
f 27/49/22 11/24/21 12/26/23 28/51/24
f 28/51/24 12/26/23 13/28/25 29/52/26
f 29/52/26 13/28/25 14/30/27 30/53/28
f 30/53/28 14/30/27 15/32/29 31/55/30
f 2/4/3 1/1/2 16/35/31 15/33/29 14/31/27 13/29/25 12/27/23 11/25/21 10/22/19 9/20/17 8/18/15 7/16/13 6/13/11 5/11/9 4/9/7 3/7/5
f 31/54/30 15/34/29 16/36/31 32/56/32
f 32/56/32 16/36/31 1/2/2 17/37/1
f 64/126/33 32/56/32 17/37/1 34/73/34
f 36/76/35 18/38/4 19/39/6 38/79/36
f 62/122/37 31/54/30 32/56/32 64/126/33
f 60/118/38 30/53/28 31/55/30 62/121/37
f 58/115/39 29/52/26 30/53/28 60/118/38
f 56/112/40 28/51/24 29/52/26 58/115/39
f 54/108/41 27/49/22 28/51/24 56/112/40
f 52/104/42 26/48/20 27/50/22 54/107/41
f 50/101/43 25/47/18 26/48/20 52/104/42
f 48/98/44 24/46/16 25/47/18 50/101/43
f 46/94/45 23/44/14 24/46/16 48/98/44
f 44/90/46 22/43/12 23/45/14 46/93/45
f 42/87/47 21/42/10 22/43/12 44/90/46
f 40/84/48 20/41/8 21/42/10 42/87/47
f 38/80/36 19/40/6 20/41/8 40/84/48
f 34/73/34 36/76/35 37/77/49 35/74/50
f 35/75/50 37/78/49 33/57/51
f 36/76/35 38/79/36 39/81/52 37/77/49
f 37/78/49 39/83/52 33/58/51
f 38/80/36 40/84/48 41/85/53 39/82/52
f 39/83/52 41/86/53 33/59/51
f 40/84/48 42/87/47 43/88/54 41/85/53
f 41/86/53 43/89/54 33/60/51
f 42/87/47 44/90/46 45/91/55 43/88/54
f 43/89/54 45/92/55 33/61/51
f 44/90/46 46/93/45 47/95/56 45/91/55
f 45/92/55 47/97/56 33/62/51
f 46/94/45 48/98/44 49/99/57 47/96/56
f 47/97/56 49/100/57 33/63/51
f 48/98/44 50/101/43 51/102/58 49/99/57
f 49/100/57 51/103/58 33/64/51
f 50/101/43 52/104/42 53/105/59 51/102/58
f 51/103/58 53/106/59 33/65/51
f 52/104/42 54/107/41 55/109/60 53/105/59
f 53/106/59 55/111/60 33/66/51
f 54/108/41 56/112/40 57/113/61 55/110/60
f 55/111/60 57/114/61 33/67/51
f 56/112/40 58/115/39 59/116/62 57/113/61
f 57/114/61 59/117/62 33/68/51
f 58/115/39 60/118/38 61/119/63 59/116/62
f 59/117/62 61/120/63 33/69/51
f 60/118/38 62/121/37 63/123/64 61/119/63
f 61/120/63 63/125/64 33/70/51
f 62/122/37 64/126/33 65/127/65 63/124/64
f 63/125/64 65/128/65 33/71/51
f 64/126/33 34/73/34 35/74/50 65/127/65
f 65/128/65 35/75/50 33/72/51
f 34/73/34 17/37/1 18/38/4 36/76/35
f 98/180/66 74/147/67 66/132/68
f 90/172/69 66/130/68 78/155/70
f 66/129/68 83/165/71 79/157/72
f 83/165/71 84/166/73 80/159/74 79/157/72
f 84/166/73 85/167/75 81/162/76 80/159/74
f 104/190/77 86/168/77 82/163/78 102/188/79
f 103/189/51 88/170/80 76/151/81 101/186/82
f 88/170/80 89/171/83 77/153/84 76/151/81
f 89/171/83 90/172/69 78/155/70 77/153/84
f 66/131/68 79/158/72 91/173/85
f 91/173/85 79/158/72 80/160/74 92/174/86
f 92/174/86 80/160/74 81/161/76 93/175/86
f 106/192/87 102/187/79 82/164/78 94/176/86
f 105/191/88 100/184/89 72/143/90 96/178/91
f 96/178/91 72/143/90 73/145/92 97/179/91
f 97/179/91 73/145/92 74/147/67 98/180/66
f 68/135/93 67/133/94 90/172/69 89/171/83
f 69/137/95 68/135/93 89/171/83 88/170/80
f 99/182/96 69/137/95 88/170/80 103/189/51
f 100/183/89 71/141/97 86/168/77 104/190/77
f 73/146/92 72/144/90 85/167/75 84/166/73
f 74/148/67 73/146/92 84/166/73 83/165/71
f 66/129/68 74/148/67 83/165/71
f 67/133/94 66/130/68 90/172/69
f 68/136/93 97/179/91 98/180/66 67/134/94
f 69/138/95 96/178/91 97/179/91 68/136/93
f 99/181/96 105/191/88 96/178/91 69/138/95
f 101/185/82 106/192/87 94/176/86 75/149/98
f 77/154/84 92/174/86 93/175/86 76/152/81
f 78/156/70 91/173/85 92/174/86 77/154/84
f 66/131/68 91/173/85 78/156/70
f 67/134/94 98/180/66 66/132/68
f 76/152/81 93/175/86 106/192/87 101/185/82
f 70/139/99 95/177/91 105/191/88 99/181/96
f 72/144/90 100/183/89 104/190/77 85/167/75
f 70/140/99 99/182/96 103/189/51 87/169/51
f 95/177/91 71/142/97 100/184/89 105/191/88
f 93/175/86 81/161/76 102/187/79 106/192/87
f 87/169/51 103/189/51 101/186/82 75/150/98
f 85/167/75 104/190/77 102/188/79 81/162/76
f 131/232/100 107/196/101 113/207/102
f 125/226/103 116/213/104 107/194/101
f 107/193/101 117/215/105 120/221/106
f 120/221/106 117/215/105 118/217/107 121/222/108
f 121/222/108 118/217/107 119/220/109 122/223/110
f 137/242/77 135/240/111 82/163/78 86/168/77
f 136/241/51 134/238/112 114/209/113 123/224/114
f 123/224/114 114/209/113 115/211/115 124/225/116
f 124/225/116 115/211/115 116/213/104 125/226/103
f 107/195/101 126/227/117 117/216/105
f 126/227/117 127/228/86 118/218/107 117/216/105
f 127/228/86 128/229/86 119/219/109 118/218/107
f 139/244/118 94/176/86 82/164/78 135/239/111
f 138/243/119 129/230/91 111/203/120 133/236/121
f 129/230/91 130/231/91 112/205/122 111/203/120
f 130/231/91 131/232/100 113/207/102 112/205/122
f 109/199/123 124/225/116 125/226/103 108/197/124
f 110/201/125 123/224/114 124/225/116 109/199/123
f 132/234/126 136/241/51 123/224/114 110/201/125
f 133/235/121 137/242/77 86/168/77 71/141/97
f 112/206/122 121/222/108 122/223/110 111/204/120
f 113/208/102 120/221/106 121/222/108 112/206/122
f 107/193/101 120/221/106 113/208/102
f 108/197/124 125/226/103 107/194/101
f 109/200/123 108/198/124 131/232/100 130/231/91
f 110/202/125 109/200/123 130/231/91 129/230/91
f 132/233/126 110/202/125 129/230/91 138/243/119
f 134/237/112 75/149/98 94/176/86 139/244/118
f 115/212/115 114/210/113 128/229/86 127/228/86
f 116/214/104 115/212/115 127/228/86 126/227/117
f 107/195/101 116/214/104 126/227/117
f 108/198/124 107/196/101 131/232/100
f 114/210/113 134/237/112 139/244/118 128/229/86
f 70/139/99 132/233/126 138/243/119 95/177/91
f 111/204/120 122/223/110 137/242/77 133/235/121
f 70/140/99 87/169/51 136/241/51 132/234/126
f 95/177/91 138/243/119 133/236/121 71/142/97
f 128/229/86 139/244/118 135/239/111 119/219/109
f 87/169/51 75/150/98 134/238/112 136/241/51
f 122/223/110 119/220/109 135/240/111 137/242/77
s 0
f 144/257/127 140/245/127 141/248/127 145/260/127
f 145/261/128 141/249/128 143/254/128 146/263/128
f 146/264/129 143/255/129 142/251/129 147/266/129
f 147/267/130 142/252/130 140/246/130 144/258/130
f 143/256/51 141/250/51 140/247/51 142/253/51
f 147/268/77 144/259/77 145/262/77 146/265/77
