# Blender v3.5.0 OBJ File: ''
# www.blender.org
mtllib crystal.mtl
o Large_Crystals_1_Plane.002
v 0.073300 0.241623 -0.130752
v -0.209913 0.339072 -0.394735
v -0.075775 1.733658 -0.435612
v 0.320124 1.715665 -0.066595
v 0.317930 0.199042 -0.117802
v 0.645060 0.199042 -0.468762
v 0.791645 0.855874 -0.523415
v 0.464514 0.855874 -0.172455
v -0.147175 0.000277 -1.117589
v 0.270509 0.202477 -0.817881
v 0.629461 -0.001164 -0.483302
v -0.703362 0.374744 -0.902585
v -1.106009 -0.000000 -0.359039
v -0.902880 1.039207 -0.409456
v -0.844565 0.996193 -0.686772
v -0.738075 1.038893 -0.396407
v -0.453621 0.433163 0.714959
v -0.275315 0.536989 0.626772
v -0.529808 0.772354 0.676833
v 0.101330 0.342407 -0.942353
v -0.222282 0.798454 -1.096211
v 0.056332 0.466687 -0.962336
v -0.386735 0.000000 0.605995
v -0.247330 0.202477 0.441337
v -0.570225 -0.002599 -1.020818
v -0.266578 0.436334 -0.521731
v -0.214603 0.339072 -0.528167
v 0.049381 0.241623 -0.811381
v -0.242739 0.577684 -0.642167
v 0.271062 0.891003 -0.137702
v -0.081212 1.012214 -0.466057
v -0.624266 0.296931 0.002599
v -0.110037 1.708437 0.713760
v -0.554491 1.728637 0.299485
v -0.560283 0.704961 -0.933481
v -0.351777 0.362834 -0.526966
v -0.860232 0.170869 -0.053104
v -0.960810 0.000000 0.272398
v 0.526816 1.319555 -0.504420
v 0.260877 1.398584 -0.392559
v 0.247143 0.891003 -0.818331
v 0.441467 1.358701 -0.575391
v -0.593263 0.646389 0.330412
v 0.468271 0.851857 -0.824831
v -0.780296 0.334511 0.652176
v -0.925123 0.740764 0.606100
v -0.347862 0.362834 -0.385200
v -0.649221 1.093519 -0.573445
v -0.847888 0.541133 0.306662
v -0.755958 0.851686 0.424611
v 0.111613 0.000000 0.588482
v 0.452531 0.000000 0.222729
v 0.283457 0.128959 0.065135
v 0.232241 0.323881 0.052673
v -0.568734 1.738046 -0.100297
v -0.145868 2.541507 0.367907
v -0.337747 2.300472 0.189057
v -0.343896 2.185282 0.016463
v 0.039840 2.297930 0.031013
v -0.131077 2.305698 -0.128298
v -0.142776 -0.137446 -1.119374
v 0.274908 0.064754 -0.819666
v 0.633860 -0.138887 -0.485087
v -0.382336 -0.137723 0.604210
v -0.242931 0.064754 0.439552
v -0.565826 -0.140322 -1.022603
v 0.116012 -0.137723 0.586697
v 0.456930 -0.137723 0.220944
v -1.101610 -0.137723 -0.360824
v -0.956411 -0.137723 0.270613
vt 0.000000 0.000000
vt 0.000000 0.000000
vt 0.000000 0.000000
vt 0.000000 0.000000
vt 0.000000 0.000000
vt 0.000000 0.000000
vt 0.000000 0.000000
vt 0.000000 0.000000
vt 0.000000 0.000000
vt 0.516037 0.583088
vt 0.507543 0.683143
vt 0.166165 0.718370
vt 0.148957 0.583088
vt 0.670377 0.652797
vt 0.552194 0.628640
vt 0.552195 0.460639
vt 0.670377 0.484797
vt 0.425627 0.515010
vt 0.297262 0.564317
vt 0.168302 0.564923
vt 0.173263 0.515010
vt 0.704718 0.154948
vt 0.586781 0.001458
vt 0.853732 0.001458
vt 0.848397 0.066504
vt 0.001457 0.495756
vt 0.042760 0.501098
vt 0.001457 0.567219
vt 0.798046 0.111264
vt 0.798043 0.163466
vt 0.720292 0.148868
vt 0.305056 0.886758
vt 0.384833 0.967122
vt 0.183283 0.967122
vt 0.272960 0.896904
vt 0.795604 0.921946
vt 0.773652 0.993117
vt 0.681084 0.993117
vt 0.683786 0.940985
vt 0.619918 0.213385
vt 0.644034 0.296954
vt 0.945429 0.986165
vt 0.923725 0.970732
vt 0.923887 0.870286
vt 0.957286 0.843947
vt 0.987246 0.855034
vt 0.987246 0.968739
vt 0.789880 0.811915
vt 0.690263 0.825677
vt 0.672555 0.655581
vt 0.796464 0.638462
vt 0.437481 0.005045
vt 0.583636 0.001494
vt 0.590611 0.374244
vt 0.438923 0.355172
vt 0.517768 0.596962
vt 0.602807 0.685348
vt 0.514233 0.685354
vt 0.857918 0.442568
vt 0.884612 0.316778
vt 0.908981 0.305144
vt 0.944161 0.329442
vt 0.948095 0.442568
vt 0.391794 0.427428
vt 0.434632 0.338215
vt 0.434632 0.501436
vt 0.793866 0.169876
vt 0.836226 0.249817
vt 0.621342 0.353729
vt 0.688612 0.345918
vt 0.412578 0.837841
vt 0.416976 0.713422
vt 0.530642 0.731399
vt 0.534590 0.796365
vt 0.366051 0.844797
vt 0.511259 0.830360
vt 0.474949 0.937674
vt 0.362220 0.937674
vt 0.242056 0.838870
vt 0.245591 0.738841
vt 0.243770 0.713422
vt 0.689703 0.288654
vt 0.815488 0.260203
vt 0.815488 0.420765
vt 0.707280 0.447022
vt 0.919231 0.930418
vt 0.798929 0.918452
vt 0.777371 0.816728
vt 0.679735 0.954952
vt 0.514458 0.954952
vt 0.581826 0.884031
vt 0.800195 0.100847
vt 0.920698 0.110407
vt 0.920698 0.298339
vt 0.871245 0.287144
vt 0.893322 0.579220
vt 0.805785 0.569675
vt 0.888319 0.457404
vt 0.163135 0.980208
vt 0.052686 0.957654
vt 0.035674 0.900347
vt 0.121154 0.915314
vt 0.982651 0.590843
vt 0.920594 0.585411
vt 0.982656 0.505544
vt 0.971119 0.002033
vt 0.971119 0.085243
vt 0.945925 0.222290
vt 0.906232 0.023871
vt 0.730599 0.526727
vt 0.809589 0.559599
vt 0.780136 0.556211
vt 0.252888 0.026246
vt 0.193006 0.001456
vt 0.265806 0.001456
vt 0.051881 0.804951
vt 0.094456 0.754698
vt 0.277868 0.862930
vt 0.269336 0.896417
vt 0.864186 0.706722
vt 0.889657 0.583368
vt 0.946588 0.595368
vt 0.946588 0.759387
vt 0.996702 0.500568
vt 0.946812 0.500565
vt 0.958307 0.345873
vt 0.592511 0.305310
vt 0.609639 0.273957
vt 0.639496 0.291953
vt 0.623149 0.321348
vt 0.612211 0.313764
vt 0.002445 0.896417
vt 0.949500 0.783455
vt 0.949500 0.592914
vt 0.976118 0.778951
vt 0.636894 0.894671
vt 0.514997 0.852138
vt 0.576917 0.699454
vt 0.636900 0.696003
vt 0.865528 0.727484
vt 0.920887 0.754847
vt 0.863376 0.775736
vt 0.850566 0.771800
vt 0.966490 0.126847
vt 0.998481 0.071727
vt 0.998481 0.154879
vt 0.640362 0.823299
vt 0.640362 0.653208
vt 0.858379 0.266303
vt 0.858379 0.426865
vt 0.709344 0.482484
vt 0.793989 0.785365
vt 0.842062 0.608420
vt 0.001729 0.980099
vt 0.936833 0.447261
vt 0.936832 0.559649
vt 0.507090 0.854243
vt 0.719359 0.930355
vt 0.693182 0.848924
vt 0.095711 0.593192
vt 0.001462 0.636175
vt 0.001454 0.575613
vt 0.998542 0.379241
vt 0.921513 0.302807
vt 0.998542 0.223478
vt 0.592098 0.155407
vt 0.230056 0.511545
vt 0.216632 0.143095
vt 0.291341 0.157380
vt 0.920886 0.919979
vt 0.492486 0.578410
vt 0.437481 0.509342
vt 0.285747 0.002666
vt 0.315306 0.038425
vt 0.001467 0.378862
vt 0.221902 0.367403
vt 0.168287 0.519553
vt 0.077330 0.586451
vt 0.374213 0.511545
vt 0.435221 0.165267
vt 0.007000 0.001463
vt 0.170019 0.001463
vt 0.187912 0.002262
vt 0.241550 0.026496
vt 0.228743 0.089845
vt 0.187912 0.105381
vt 0.901649 0.092982
vt 0.831751 0.092284
vt 0.901651 0.001718
vt 0.009022 0.701398
vt 0.001593 0.642994
vt 0.380185 0.011479
vt 0.055432 0.549256
vt 0.673291 0.488523
vt 0.719462 0.508158
vt 0.673291 0.619599
vt 0.395602 0.045920
vt 0.429611 0.001718
vt 0.429611 0.131249
vt 0.429611 0.001718
vt 0.429611 0.131249
vt 0.619918 0.213385
vt 0.644034 0.296954
vt 0.297262 0.564317
vt 0.842062 0.608420
vt 0.793989 0.785365
vt 0.864186 0.706722
vt 0.946588 0.759387
vt 0.795604 0.921946
vt 0.679735 0.954952
vt 0.434632 0.338215
vt 0.586781 0.001458
vt 0.001454 0.575613
vt 0.001462 0.636175
vt 0.173263 0.515010
vt 0.425627 0.515010
vt 0.095711 0.593192
vt 0.889657 0.583368
vt 0.514458 0.954952
vt 0.434632 0.501436
vn 0.6910 0.0314 -0.7222
vn 0.0144 -0.9126 0.4085
vn 0.6719 -0.0833 -0.7360
vn 0.7274 -0.1059 0.6780
vn 0.6359 0.0037 -0.7718
vn 0.6457 -0.1046 -0.7564
vn 0.6407 -0.0390 -0.7668
vn -0.8825 0.0791 -0.4636
vn 0.0138 0.9885 -0.1504
vn 0.3489 0.1817 0.9194
vn 0.5037 0.0669 -0.8613
vn 0.7103 -0.1738 0.6821
vn -0.4947 0.0554 -0.8673
vn -0.2189 0.2206 -0.9505
vn -0.2229 0.0633 -0.9728
vn -0.7751 -0.0769 -0.6272
vn -0.9696 0.0838 -0.2300
vn 0.7410 0.3584 0.5679
vn -0.6304 0.2000 0.7501
vn -0.7234 -0.0819 0.6856
vn 0.2434 0.5318 0.8112
vn -0.5801 0.4589 0.6730
vn -0.6889 0.7073 0.1584
vn -0.7921 -0.0285 0.6098
vn -0.3850 0.0154 -0.9228
vn 0.5936 0.4142 0.6900
vn -0.5087 0.5613 -0.6528
vn 0.7153 0.4174 -0.5604
vn -0.7482 0.2064 -0.6305
vn 0.6668 -0.2095 -0.7152
vn -0.7929 -0.2181 0.5690
vn -0.4880 -0.2379 0.8398
vn -0.4096 -0.5792 0.7048
vn 0.7170 0.4231 0.5540
vn -0.9596 0.2120 -0.1852
vn 0.6127 0.7001 -0.3668
vn -0.1458 0.8988 0.4134
vn -0.8667 0.2820 -0.4115
vn -0.5665 0.3607 0.7409
vn 0.6412 0.3775 -0.6681
vn 0.3291 0.9365 0.1208
vn -0.2725 0.3868 0.8810
vn 0.6049 0.5622 0.5639
vn 0.7892 0.4222 0.4460
vn 0.3564 0.8733 0.3322
vn 0.5847 0.2038 0.7852
vn 0.1647 0.9392 0.3014
vn -0.8141 0.1858 0.5502
vn 0.9265 0.3755 -0.0256
vn 0.6121 0.2907 -0.7354
vn 0.6206 0.7479 -0.2357
vn 0.8282 -0.5521 -0.0964
vn 0.0554 0.0325 0.9979
vn -0.0297 -0.0017 -0.9996
vn 0.2356 0.4399 0.8666
vn 0.0522 0.4432 -0.8949
vn 0.6628 0.7304 0.1649
vn 0.9433 0.2333 0.2360
vn -0.0672 0.3716 -0.9260
vn -0.2081 0.6822 -0.7009
vn -0.1066 -0.2580 0.9602
vn -0.1910 0.0541 0.9801
vn 0.0276 0.6192 0.7848
vn 0.3610 0.9325 0.0139
vn 0.1819 0.9398 0.2893
vn -0.9985 0.0411 0.0365
vn -0.3379 0.9328 -0.1255
vn -0.7041 0.2997 0.6438
vn -0.9167 0.3975 -0.0408
vn 0.8667 0.2674 0.4212
vn -0.6283 0.0026 -0.7780
vn 0.8647 -0.1650 0.4744
vn -0.2767 0.8985 0.3407
vn -0.2190 0.8152 -0.5362
vn -0.2705 0.7032 -0.6575
vn 0.6307 0.4137 -0.6565
vn -0.5601 0.3959 -0.7277
vn -0.4641 0.8849 0.0401
vn 0.3003 0.8704 0.3901
vn 0.1124 0.7441 -0.6586
vn 0.5735 0.0289 -0.8187
vn -0.3812 -0.6451 -0.6622
vn -0.1003 -0.8196 -0.5641
vn 0.0319 -0.9994 -0.0130
vn 0.6130 -0.7781 0.1369
vn 0.6854 -0.6391 0.3489
vn 0.4974 -0.7529 0.4310
vn -0.3149 -0.7567 0.5729
vn -0.6075 -0.6500 0.4565
vn -0.7455 -0.6389 -0.1898
vn 0.1432 -0.0083 0.9897
vn 0.7536 0.0156 0.6572
vn 0.2591 -0.0042 0.9658
vn 0.6323 0.0302 -0.7741
vn -0.3910 -0.0244 0.9201
usemtl Large_Crystals1
s off
f 10/1/1 11/2/1 63/3/1 62/4/1
f 23/5/2 64/6/2 65/7/2 67/8/2 51/9/2
s 1
f 1/10/3 2/11/3 3/12/3 4/13/3
f 5/14/4 6/15/4 7/16/4 8/17/4
f 9/18/5 10/19/6 6/20/6 11/21/7
f 12/22/8 13/23/8 14/24/8 15/25/8
f 14/26/9 16/27/9 15/28/9
f 17/29/10 18/30/10 19/31/10
f 20/32/11 9/33/11 21/34/11 22/35/11
f 23/36/12 24/37/12 18/38/12 17/39/12
f 25/40/13 12/22/14 9/41/15
f 12/22/16 25/40/13 13/23/17
f 26/42/18 27/43/18 28/44/18 20/45/18 22/46/18 29/47/18
f 2/48/19 1/49/19 30/50/19 31/51/19
f 32/52/20 24/53/20 33/54/20 34/55/20
f 35/56/21 22/57/21 21/58/21
f 12/59/22 36/60/22 26/61/22 29/62/22 35/63/22
f 37/64/23 13/65/17 38/66/24
f 9/41/25 12/22/25 35/67/25 21/68/25
f 8/17/26 7/16/26 39/69/26 40/70/26
f 41/71/27 31/72/27 40/73/27 42/74/27
f 24/75/28 32/76/28 43/77/28 18/78/28
f 28/79/29 27/80/29 2/81/29 31/72/29 41/71/29
f 6/82/30 10/83/30 44/84/30 7/85/30
f 38/86/31 45/87/31 46/88/31
f 38/89/24 23/90/32 45/91/33
f 32/92/34 47/93/34 48/94/34 16/95/34
f 37/96/35 38/97/35 49/98/35
f 18/99/36 43/100/36 50/101/36 19/102/36
f 50/103/37 46/104/37 19/105/37
f 50/106/38 49/107/38 38/108/38 46/109/38
f 31/51/39 30/50/39 40/110/39
f 7/85/40 44/84/40 42/111/40 39/112/40
f 42/113/41 40/114/41 39/115/41
f 37/116/42 32/117/42 16/118/42 14/119/42
f 51/120/43 52/121/44 53/122/45 24/123/45
f 53/124/46 54/125/46 24/126/46
f 36/127/47 47/128/47 2/129/47 27/130/47 26/131/47
f 37/116/48 14/119/48 13/132/48
f 36/133/49 48/134/49 47/135/49
f 36/136/50 12/137/50 15/138/50 48/139/50
f 5/140/51 1/141/51 54/142/51 53/143/51
f 28/144/52 9/145/52 20/146/52
f 30/50/53 1/49/53 5/147/53 8/148/53
f 44/84/54 10/83/54 28/149/54 41/150/54
f 8/17/55 40/70/55 30/151/55
f 42/111/56 44/84/56 41/150/56
f 5/140/57 52/152/44 11/153/58
f 43/100/59 49/154/59 50/101/59
f 43/155/60 32/156/60 37/96/60 49/98/60
f 45/91/61 23/90/61 17/157/61
f 46/88/62 45/87/62 17/158/62 19/159/62
f 51/160/63 24/161/63 23/162/63
f 35/163/64 29/164/64 22/165/64
f 47/128/65 32/166/65 2/129/65
f 32/167/66 34/168/66 55/169/66
f 54/142/67 1/141/67 24/170/67
f 34/55/68 33/54/68 56/171/68 57/172/68
f 55/169/69 34/168/69 57/173/69 58/174/69
f 33/175/70 4/176/70 59/177/70 56/178/70
f 2/179/71 32/167/71 55/169/71 3/180/71
f 24/181/72 1/182/72 4/176/72 33/175/72
f 59/183/73 60/184/73 58/185/73
f 58/185/74 57/186/74 59/183/74
f 57/187/75 56/188/75 59/189/75
f 4/13/76 3/12/76 60/190/76 59/191/76
f 3/180/77 55/169/77 58/174/77 60/192/77
f 48/193/78 15/28/78 16/27/78
f 11/194/4 6/195/4 5/196/4
f 5/140/79 53/143/79 52/152/79
f 28/197/80 10/198/80 9/199/80
f 9/199/81 10/198/81 62/200/81 61/201/81
f 66/202/82 61/203/83 62/204/84 63/205/85 68/206/86 67/207/87 65/208/84 64/209/88 70/210/89 69/211/90
f 13/23/17 25/40/13 66/202/82 69/212/90
f 24/161/91 23/162/92 64/213/92 65/214/93
f 9/18/5 11/21/7 63/215/94 61/216/94
f 51/160/95 24/161/91 65/214/93 67/217/95
f 52/121/44 51/120/43 67/207/87 68/218/86
f 25/40/13 9/41/15 61/203/83 66/202/82
f 23/90/32 38/89/24 70/210/89 64/219/88
f 11/153/58 52/152/44 68/206/86 63/205/85
f 38/66/24 13/65/17 69/211/90 70/220/89
